<?xml version="1.0" encoding="utf-8"?>
<svg version="1.1" xmlns:xlink="http://www.w3.org/1999/xlink" width="20px" height="20px" xmlns="http://www.w3.org/2000/svg">
  <g transform="matrix(1 0 0 1 -1261 -13 )">
    <path d="M 6.11607142857143 0.792410714285714  C 7.35119047619048 0.264136904761905  8.64583333333333 0  10 0  C 11.3541666666667 0  12.6488095238095 0.264136904761905  13.8839285714286 0.792410714285714  C 15.1190476190476 1.32068452380952  16.1830357142857 2.03125  17.0758928571429 2.92410714285714  C 17.96875 3.81696428571429  18.6793154761905 4.88095238095238  19.2075892857143 6.11607142857143  C 19.7358630952381 7.35119047619047  20 8.64583333333333  20 10  C 20 11.3467261904762  19.7377232142857 12.6376488095238  19.2131696428571 13.8727678571429  C 18.6886160714286 15.1078869047619  17.9799107142857 16.171875  17.0870535714286 17.0647321428571  C 16.1941964285714 17.9575892857143  15.1302083333333 18.6700148809524  13.8950892857143 19.2020089285714  C 12.6599702380952 19.7340029761905  11.3616071428571 20  10 20  C 8.63839285714286 20  7.34002976190476 19.7358630952381  6.10491071428571 19.2075892857143  C 4.86979166666667 18.6793154761905  3.80766369047619 17.9668898809524  2.91852678571429 17.0703125  C 2.02938988095238 16.1737351190476  1.32068452380952 15.1097470238095  0.792410714285714 13.8783482142857  C 0.264136904761905 12.6469494047619  0 11.3541666666667  0 10  C 0 8.64583333333333  0.264136904761905 7.35119047619047  0.792410714285714 6.11607142857143  C 1.32068452380952 4.88095238095238  2.03125 3.81696428571429  2.92410714285714 2.92410714285714  C 3.81696428571429 2.03125  4.88095238095238 1.32068452380952  6.11607142857143 0.792410714285714  Z M 13.4933035714286 11.4285714285714  C 15.2790178571429 11.4285714285714  16.4174107142857 12.6450892857143  16.9084821428571 15.078125  C 18.0171130952381 13.5528273809524  18.5714285714286 11.860119047619  18.5714285714286 10  C 18.5714285714286 8.83928571428571  18.344494047619 7.73065476190476  17.890625 6.67410714285714  C 17.436755952381 5.61755952380952  16.8266369047619 4.70610119047619  16.0602678571429 3.93973214285714  C 15.2938988095238 3.1733630952381  14.3824404761905 2.56324404761905  13.3258928571429 2.109375  C 12.2693452380952 1.65550595238095  11.1607142857143 1.42857142857143  10 1.42857142857143  C 8.83928571428571 1.42857142857143  7.73065476190476 1.65550595238095  6.67410714285714 2.109375  C 5.61755952380952 2.56324404761905  4.70610119047619 3.1733630952381  3.93973214285714 3.93973214285714  C 3.1733630952381 4.70610119047619  2.56324404761905 5.61755952380952  2.109375 6.67410714285714  C 1.65550595238095 7.73065476190476  1.42857142857143 8.83928571428571  1.42857142857143 10  C 1.42857142857143 11.860119047619  1.9828869047619 13.5528273809524  3.09151785714286 15.078125  C 3.58258928571429 12.6450892857143  4.72098214285714 11.4285714285714  6.50669642857143 11.4285714285714  C 7.48139880952381 12.3809523809524  8.64583333333333 12.8571428571429  10 12.8571428571429  C 11.3541666666667 12.8571428571429  12.5186011904762 12.3809523809524  13.4933035714286 11.4285714285714  Z M 13.0301339285714 10.8872767857143  C 13.8671875 10.0502232142857  14.2857142857143 9.04017857142857  14.2857142857143 7.85714285714286  C 14.2857142857143 6.67410714285714  13.8671875 5.6640625  13.0301339285714 4.82700892857143  C 12.1930803571429 3.98995535714286  11.1830357142857 3.57142857142857  10 3.57142857142857  C 8.81696428571429 3.57142857142857  7.80691964285714 3.98995535714286  6.96986607142857 4.82700892857143  C 6.1328125 5.6640625  5.71428571428571 6.67410714285714  5.71428571428571 7.85714285714286  C 5.71428571428571 9.04017857142857  6.1328125 10.0502232142857  6.96986607142857 10.8872767857143  C 7.80691964285714 11.7243303571429  8.81696428571429 12.1428571428571  10 12.1428571428571  C 11.1830357142857 12.1428571428571  12.1930803571429 11.7243303571429  13.0301339285714 10.8872767857143  Z " fill-rule="nonzero" fill="#7b7b7b" stroke="none" transform="matrix(1 0 0 1 1261 13 )" />
  </g>
</svg>