<?xml version="1.0" encoding="utf-8"?>
<svg version="1.1" xmlns:xlink="http://www.w3.org/1999/xlink" width="8px" height="13px" xmlns="http://www.w3.org/2000/svg">
  <g transform="matrix(1 0 0 1 -700 -397 )">
    <path d="M 5.4140625 5.865234375  C 5.8046875 5.44205729166667  6 4.93142361111111  6 4.33333333333333  C 6 3.73524305555555  5.8046875 3.224609375  5.4140625 2.80143229166667  C 5.0234375 2.37825520833333  4.55208333333333 2.16666666666667  4 2.16666666666667  C 3.44791666666667 2.16666666666667  2.9765625 2.37825520833333  2.5859375 2.80143229166667  C 2.1953125 3.224609375  2 3.73524305555555  2 4.33333333333333  C 2 4.93142361111111  2.1953125 5.44205729166667  2.5859375 5.865234375  C 2.9765625 6.28841145833333  3.44791666666667 6.5  4 6.5  C 4.55208333333333 6.5  5.0234375 6.28841145833333  5.4140625 5.865234375  Z M 6.828125 1.26953125  C 7.609375 2.11588541666667  8 3.13715277777778  8 4.33333333333333  C 8 4.94835069444444  7.9140625 5.45334201388889  7.7421875 5.84830729166667  L 4.8984375 12.3990885416667  C 4.81510416666667 12.5852864583333  4.69140625 12.7319878472222  4.52734375 12.8391927083333  C 4.36328125 12.9463975694444  4.1875 13  4 13  C 3.8125 13  3.63671875 12.9463975694444  3.47265625 12.8391927083333  C 3.30859375 12.7319878472222  3.1875 12.5852864583333  3.109375 12.3990885416667  L 0.2578125 5.84830729166667  C 0.0859375 5.45334201388889  0 4.94835069444444  0 4.33333333333333  C 0 3.13715277777778  0.390625 2.11588541666667  1.171875 1.26953125  C 1.953125 0.423177083333334  2.89583333333333 0  4 0  C 5.10416666666667 0  6.046875 0.423177083333334  6.828125 1.26953125  Z " fill-rule="nonzero" fill="#ffffff" stroke="none" transform="matrix(1 0 0 1 700 397 )" />
  </g>
</svg>