<?xml version="1.0" encoding="utf-8"?>
<svg version="1.1" xmlns:xlink="http://www.w3.org/1999/xlink" width="10px" height="8px" xmlns="http://www.w3.org/2000/svg">
  <g transform="matrix(1 0 0 1 -699 -480 )">
    <path d="M 9.44196428571429 3.07386363636364  C 9.65401785714286 2.92613636363636  9.84002976190476 2.76136363636364  10 2.57954545454545  L 10 7.09090909090909  C 10 7.34090909090909  9.91257440476191 7.55492424242424  9.73772321428571 7.73295454545455  C 9.56287202380953 7.91098484848485  9.35267857142857 8  9.10714285714286 8  L 0.892857142857143 8  C 0.647321428571429 8  0.437127976190476 7.91098484848485  0.262276785714286 7.73295454545455  C 0.0874255952380953 7.55492424242424  0 7.34090909090909  0 7.09090909090909  L 0 2.57954545454545  C 0.163690476190476 2.76515151515151  0.3515625 2.92992424242424  0.563616071428571 3.07386363636364  C 1.91034226190476 4.00568181818182  2.83482142857143 4.65909090909091  3.33705357142857 5.03409090909091  C 3.54910714285714 5.19318181818182  3.72116815476191 5.31723484848485  3.85323660714286 5.40625  C 3.98530505952381 5.49526515151515  4.16108630952381 5.58617424242424  4.38058035714286 5.67897727272727  C 4.60007440476191 5.7717803030303  4.8046875 5.81818181818182  4.99441964285714 5.81818181818182  L 5 5.81818181818182  L 5.00558035714286 5.81818181818182  C 5.1953125 5.81818181818182  5.39992559523809 5.7717803030303  5.61941964285714 5.67897727272727  C 5.83891369047619 5.58617424242424  6.01469494047619 5.49526515151515  6.14676339285714 5.40625  C 6.27883184523809 5.31723484848485  6.45089285714286 5.19318181818182  6.66294642857143 5.03409090909091  C 7.29538690476191 4.56818181818182  8.22172619047619 3.91477272727273  9.44196428571429 3.07386363636364  Z M 9.73493303571429 0.267045454545454  C 9.91164434523809 0.445075757575757  10 0.659090909090909  10 0.909090909090909  C 10 1.20833333333333  9.90885416666667 1.49431818181818  9.7265625 1.76704545454545  C 9.54427083333333 2.03977272727273  9.31733630952381 2.27272727272727  9.04575892857143 2.46590909090909  C 7.64694940476191 3.45454545454545  6.77641369047619 4.07007575757576  6.43415178571429 4.3125  C 6.39694940476191 4.33901515151515  6.31789434523809 4.3967803030303  6.19698660714286 4.48579545454546  C 6.07607886904762 4.57481060606061  5.97563244047619 4.6467803030303  5.89564732142857 4.70170454545455  C 5.81566220238095 4.75662878787879  5.71893601190476 4.81818181818182  5.60546875 4.88636363636364  C 5.49200148809524 4.95454545454546  5.38504464285714 5.00568181818182  5.28459821428571 5.03977272727273  C 5.18415178571429 5.07386363636364  5.09114583333333 5.09090909090909  5.00558035714286 5.09090909090909  L 5 5.09090909090909  L 4.99441964285714 5.09090909090909  C 4.90885416666667 5.09090909090909  4.81584821428571 5.07386363636364  4.71540178571429 5.03977272727273  C 4.61495535714286 5.00568181818182  4.50799851190476 4.95454545454546  4.39453125 4.88636363636364  C 4.28106398809524 4.81818181818182  4.18433779761905 4.75662878787879  4.10435267857143 4.70170454545455  C 4.02436755952381 4.6467803030303  3.92392113095238 4.57481060606061  3.80301339285714 4.48579545454546  C 3.68210565476191 4.3967803030303  3.6030505952381 4.33901515151515  3.56584821428571 4.3125  C 3.22730654761905 4.07007575757576  2.73995535714286 3.72443181818182  2.10379464285714 3.27556818181818  C 1.46763392857143 2.82670454545455  1.08630952380952 2.55681818181818  0.959821428571429 2.46590909090909  C 0.729166666666667 2.30681818181818  0.511532738095238 2.08806818181818  0.306919642857143 1.80965909090909  C 0.102306547619048 1.53125  0 1.27272727272727  0 1.03409090909091  C 0 0.738636363636363  0.0771949404761905 0.492424242424241  0.231584821428571 0.295454545454546  C 0.385974702380952 0.0984848484848477  0.60639880952381 0  0.892857142857143 0  L 9.10714285714286 0  C 9.34895833333333 0  9.55822172619048 0.0890151515151505  9.73493303571429 0.267045454545454  Z " fill-rule="nonzero" fill="#ffffff" stroke="none" transform="matrix(1 0 0 1 699 480 )" />
  </g>
</svg>