<?xml version="1.0" encoding="utf-8"?>
<svg version="1.1" xmlns:xlink="http://www.w3.org/1999/xlink" width="9px" height="15px" xmlns="http://www.w3.org/2000/svg">
  <g transform="matrix(1 0 0 1 -75 -198 )">
    <path d="M 8.84536082474227 0.901803607214428  C 8.94845360824742 1.00200400801603  9 1.11723446893787  9 1.24749498997996  C 9 1.37775551102204  8.94845360824742 1.49298597194389  8.84536082474227 1.59318637274549  L 2.7680412371134 7.5  L 8.84536082474227 13.4068136272545  C 8.94845360824742 13.5070140280561  9 13.622244488978  9 13.75250501002  C 9 13.8827655310621  8.94845360824742 13.997995991984  8.84536082474227 14.0981963927856  L 8.07216494845361 14.8496993987976  C 7.96907216494845 14.9498997995992  7.85051546391753 15  7.71649484536082 15  C 7.58247422680413 15  7.4639175257732 14.9498997995992  7.36082474226804 14.8496993987976  L 0.154639175257732 7.84569138276553  C 0.0515463917525774 7.74549098196393  0 7.63026052104208  0 7.5  C 0 7.36973947895792  0.0515463917525774 7.25450901803607  0.154639175257732 7.15430861723447  L 7.36082474226804 0.150300601202405  C 7.4639175257732 0.0501002004008011  7.58247422680413 0  7.71649484536082 0  C 7.85051546391753 0  7.96907216494845 0.0501002004008011  8.07216494845361 0.150300601202405  L 8.84536082474227 0.901803607214428  Z " fill-rule="nonzero" fill="#ffffff" stroke="none" fill-opacity="0.996078431372549" transform="matrix(1 0 0 1 75 198 )" />
  </g>
</svg>