<?xml version="1.0" encoding="utf-8"?>
<svg version="1.1" xmlns:xlink="http://www.w3.org/1999/xlink" width="10px" height="10px" xmlns="http://www.w3.org/2000/svg">
  <g transform="matrix(1 0 0 1 -699 -439 )">
    <path d="M 9.97869318181818 7.74857954545455  C 9.99289772727273 7.78172348484848  10 7.83143939393939  10 7.89772727272727  C 10 8.02556818181818  9.97632575757576 8.19247159090909  9.92897727272727 8.3984375  C 9.88162878787879 8.60440340909091  9.83191287878788 8.76657196969697  9.77982954545455 8.88494318181818  C 9.68039772727273 9.12168560606061  9.39157196969697 9.37263257575758  8.91335227272727 9.63778409090909  C 8.46827651515152 9.87926136363636  8.02793560606061 10  7.59232954545455 10  C 7.46448863636364 10  7.33901515151515 9.99171401515152  7.21590909090909 9.97514204545455  C 7.09280303030303 9.95857007575758  6.95667613636364 9.92897727272727  6.80752840909091 9.88636363636364  C 6.65838068181818 9.84375  6.54711174242424 9.80942234848485  6.47372159090909 9.78338068181818  C 6.40033143939394 9.75733901515152  6.26893939393939 9.70880681818182  6.07954545454545 9.63778409090909  C 5.89015151515152 9.56676136363636  5.77414772727273 9.52414772727273  5.73153409090909 9.50994318181818  C 5.26751893939394 9.34422348484848  4.8532196969697 9.14772727272727  4.48863636363636 8.92045454545455  C 3.88731060606061 8.54640151515152  3.26231060606061 8.03503787878788  2.61363636363636 7.38636363636364  C 1.96496212121212 6.73768939393939  1.45359848484849 6.11268939393939  1.07954545454545 5.51136363636364  C 0.852272727272727 5.1467803030303  0.655776515151515 4.73248106060606  0.490056818181818 4.26846590909091  C 0.475852272727273 4.22585227272727  0.433238636363636 4.10984848484848  0.362215909090909 3.92045454545455  C 0.291193181818182 3.73106060606061  0.242660984848485 3.59966856060606  0.216619318181818 3.52627840909091  C 0.190577651515152 3.45288825757576  0.15625 3.34161931818182  0.113636363636364 3.19247159090909  C 0.0710227272727273 3.04332386363636  0.0414299242424242 2.90719696969697  0.0248579545454545 2.78409090909091  C 0.00828598484848485 2.66098484848485  0 2.53551136363636  0 2.40767045454545  C 0 1.97206439393939  0.120738636363636 1.53172348484848  0.362215909090909 1.08664772727273  C 0.627367424242424 0.608428030303029  0.878314393939394 0.319602272727273  1.11505681818182 0.220170454545454  C 1.23342803030303 0.16808712121212  1.39559659090909 0.118371212121211  1.6015625 0.0710227272727271  C 1.80752840909091 0.023674242424242  1.97443181818182 0  2.10227272727273 0  C 2.16856060606061 0  2.21827651515152 0.00710227272727293  2.25142045454545 0.0213068181818177  C 2.33664772727273 0.0497159090909094  2.46212121212121 0.229640151515151  2.62784090909091 0.561079545454546  C 2.67992424242424 0.651041666666665  2.75094696969697 0.778882575757575  2.84090909090909 0.944602272727273  C 2.93087121212121 1.11032196969697  3.01373106060606 1.26065340909091  3.08948863636364 1.39559659090909  C 3.16524621212121 1.53053977272727  3.23863636363636 1.65719696969697  3.30965909090909 1.77556818181818  C 3.32386363636364 1.79450757575757  3.36529356060606 1.85369318181818  3.43394886363636 1.953125  C 3.50260416666667 2.05255681818182  3.55350378787879 2.13660037878788  3.58664772727273 2.20525568181818  C 3.61979166666667 2.27391098484848  3.63636363636364 2.34138257575757  3.63636363636364 2.40767045454545  C 3.63636363636364 2.50236742424242  3.56889204545455 2.62073863636364  3.43394886363636 2.76278409090909  C 3.29900568181818 2.90482954545455  3.15222537878788 3.03503787878788  2.99360795454545 3.15340909090909  C 2.83499053030303 3.2717803030303  2.68821022727273 3.39725378787879  2.55326704545455 3.52982954545455  C 2.41832386363636 3.6624053030303  2.35085227272727 3.77130681818182  2.35085227272727 3.85653409090909  C 2.35085227272727 3.89914772727273  2.36268939393939 3.95241477272727  2.38636363636364 4.01633522727273  C 2.41003787878788 4.08025568181818  2.43016098484849 4.12878787878788  2.44673295454545 4.16193181818182  C 2.46330492424242 4.19507575757576  2.49644886363636 4.25189393939394  2.54616477272727 4.33238636363636  C 2.59588068181818 4.41287878787879  2.62310606060606 4.45785984848485  2.62784090909091 4.46732954545455  C 2.98768939393939 5.11600378787879  3.39962121212121 5.67234848484848  3.86363636363636 6.13636363636364  C 4.32765151515152 6.60037878787879  4.88399621212121 7.01231060606061  5.53267045454545 7.37215909090909  C 5.54214015151515 7.37689393939394  5.58712121212121 7.40411931818182  5.66761363636364 7.45383522727273  C 5.74810606060606 7.50355113636364  5.80492424242424 7.53669507575757  5.83806818181818 7.55326704545455  C 5.87121212121212 7.56983901515151  5.91974431818182 7.58996212121212  5.98366477272727 7.61363636363636  C 6.04758522727273 7.63731060606061  6.10085227272727 7.64914772727273  6.14346590909091 7.64914772727273  C 6.22869318181818 7.64914772727273  6.3375946969697 7.58167613636364  6.47017045454545 7.44673295454545  C 6.60274621212121 7.31178977272727  6.7282196969697 7.16500946969697  6.84659090909091 7.00639204545455  C 6.96496212121212 6.84777462121212  7.09517045454545 6.70099431818182  7.23721590909091 6.56605113636364  C 7.37926136363636 6.43110795454545  7.49763257575758 6.36363636363636  7.59232954545455 6.36363636363636  C 7.65861742424243 6.36363636363636  7.72608901515152 6.38020833333333  7.79474431818182 6.41335227272727  C 7.86339962121212 6.44649621212121  7.94744318181818 6.49739583333333  8.046875 6.56605113636364  C 8.14630681818182 6.63470643939394  8.20549242424243 6.67613636363636  8.22443181818182 6.69034090909091  C 8.34280303030303 6.76136363636364  8.46946022727273 6.83475378787879  8.60440340909091 6.91051136363636  C 8.73934659090909 6.98626893939394  8.88967803030303 7.06912878787879  9.05539772727273 7.15909090909091  C 9.22111742424243 7.24905303030303  9.34895833333334 7.32007575757576  9.43892045454545 7.37215909090909  C 9.77035984848485 7.53787878787879  9.95028409090909 7.66335227272727  9.97869318181818 7.74857954545455  Z " fill-rule="nonzero" fill="#ffffff" stroke="none" transform="matrix(1 0 0 1 699 439 )" />
  </g>
</svg>